<svg width="180" height="180" viewBox="0 0 180 180" fill="none" xmlns="http://www.w3.org/2000/svg">
  <!-- Blue rounded square background -->
  <rect width="180" height="180" rx="40" fill="#3B82F6"/>
  <!-- Book icon: left page -->
  <path d="M90 52 C90 52 62 48 46 55 L46 130 C62 123 90 127 90 127 L90 52Z" fill="white" fill-opacity="0.95"/>
  <!-- Book icon: right page -->
  <path d="M90 52 C90 52 118 48 134 55 L134 130 C118 123 90 127 90 127 L90 52Z" fill="white" fill-opacity="0.75"/>
  <!-- Spine line -->
  <line x1="90" y1="52" x2="90" y2="127" stroke="#3B82F6" stroke-width="3" stroke-linecap="round"/>
  <!-- Left page lines -->
  <line x1="58" y1="75" x2="82" y2="72" stroke="#3B82F6" stroke-width="3.5" stroke-linecap="round" stroke-opacity="0.35"/>
  <line x1="58" y1="88" x2="82" y2="85" stroke="#3B82F6" stroke-width="3.5" stroke-linecap="round" stroke-opacity="0.35"/>
  <line x1="58" y1="101" x2="82" y2="99" stroke="#3B82F6" stroke-width="3.5" stroke-linecap="round" stroke-opacity="0.35"/>
  <!-- Right page lines -->
  <line x1="122" y1="75" x2="98" y2="72" stroke="#1D4ED8" stroke-width="3.5" stroke-linecap="round" stroke-opacity="0.25"/>
  <line x1="122" y1="88" x2="98" y2="85" stroke="#1D4ED8" stroke-width="3.5" stroke-linecap="round" stroke-opacity="0.25"/>
  <line x1="122" y1="101" x2="98" y2="99" stroke="#1D4ED8" stroke-width="3.5" stroke-linecap="round" stroke-opacity="0.25"/>
</svg>
