<svg width="180" height="180" viewBox="0 0 180 180" fill="none" xmlns="http://www.w3.org/2000/svg">
  <rect width="180" height="180" rx="38" fill="#3B82F6"/>
  <path d="M90 44 C90 44 56 39 36 48 L36 136 C56 127 90 132 90 132 L90 44Z" fill="white" fill-opacity="0.95"/>
  <path d="M90 44 C90 44 124 39 144 48 L144 136 C124 127 90 132 90 132 L90 44Z" fill="white" fill-opacity="0.70"/>
  <line x1="90" y1="44" x2="90" y2="132" stroke="#3B82F6" stroke-width="4" stroke-linecap="round"/>
  <line x1="52" y1="72" x2="82" y2="69" stroke="#3B82F6" stroke-width="4" stroke-linecap="round" stroke-opacity="0.4"/>
  <line x1="52" y1="88" x2="82" y2="85" stroke="#3B82F6" stroke-width="4" stroke-linecap="round" stroke-opacity="0.4"/>
  <line x1="52" y1="104" x2="82" y2="101" stroke="#3B82F6" stroke-width="4" stroke-linecap="round" stroke-opacity="0.4"/>
  <line x1="128" y1="72" x2="98" y2="69" stroke="#1E40AF" stroke-width="4" stroke-linecap="round" stroke-opacity="0.3"/>
  <line x1="128" y1="88" x2="98" y2="85" stroke="#1E40AF" stroke-width="4" stroke-linecap="round" stroke-opacity="0.3"/>
  <line x1="128" y1="104" x2="98" y2="101" stroke="#1E40AF" stroke-width="4" stroke-linecap="round" stroke-opacity="0.3"/>
</svg>
